<svg width="41" height="41" viewBox="0 0 41 41" fill="none" xmlns="http://www.w3.org/2000/svg">
<path d="M10.1027 19.4319V26.9404C10.1027 27.8703 10.8565 28.6242 11.7865 28.6242H15.154C15.7202 28.6529 16.195 28.2015 16.195 27.6346V22.7272C16.195 21.8015 16.9422 21.0495 17.8679 21.0435L22.6554 21.0125C23.5896 21.0065 24.3501 21.7621 24.3501 22.6963V27.7175C24.3501 28.2182 24.756 28.6242 25.2567 28.6242H28.6243C29.5542 28.6242 30.3081 27.8703 30.3081 26.9404V19.4319C30.3081 18.9366 30.09 18.4665 29.7119 18.1465L21.293 11.0228C20.6652 10.4916 19.7456 10.4916 19.1178 11.0228L10.6988 18.1465C10.3208 18.4665 10.1027 18.9366 10.1027 19.4319Z" fill="#898989" stroke="#898989" stroke-width="2.3573" stroke-linecap="round" stroke-linejoin="round"/>
</svg>
