<svg width="41" height="41" viewBox="0 0 41 41" fill="none" xmlns="http://www.w3.org/2000/svg">
<g clip-path="url(#clip0_359_115586)">
<path d="M10.1025 12.6284C11.6822 12.6284 13.1591 13.4115 14.0454 14.719L14.8811 15.9517L16.0075 17.6133M28.7489 25.9214H23.824C22.5037 25.9214 21.2358 25.4044 20.2919 24.4812L19.3633 23.5729M28.7489 25.9214L25.2566 29.4662M28.7489 25.9214L25.2566 22.3766" stroke="#898989" stroke-width="2.02054" stroke-linecap="round" stroke-linejoin="round"/>
<path d="M10.1025 27.9508C11.6861 27.9508 13.1707 27.1805 14.0824 25.8858L20.2552 17.1199C21.2014 15.7763 22.742 14.9769 24.3853 14.9769H28.7489M28.7489 14.9769L25.2566 11.4321M28.7489 14.9769L25.2566 18.5217" stroke="#898989" stroke-width="2.02054" stroke-linecap="round" stroke-linejoin="round"/>
</g>
<defs>
<clipPath id="clip0_359_115586">
<rect width="21.8892" height="23.573" fill="white" transform="translate(8.41895 8.41882)"/>
</clipPath>
</defs>
</svg>
