<svg width="41" height="41" viewBox="0 0 41 41" fill="none" xmlns="http://www.w3.org/2000/svg">
<path d="M23.573 13.4706C23.573 15.3305 22.0653 16.8382 20.2054 16.8382C18.3455 16.8382 16.8378 15.3305 16.8378 13.4706C16.8378 11.6107 18.3455 10.103 20.2054 10.103C22.0653 10.103 23.573 11.6107 23.573 13.4706Z" stroke="#898989" stroke-width="2.02054"/>
<path d="M13.286 22.5734L14.0358 22.0736C15.8628 20.8555 18.0095 20.2056 20.2054 20.2056C22.4012 20.2056 24.5479 20.8555 26.3749 22.0736L27.1247 22.5734C28.0616 23.198 28.6243 24.2494 28.6243 25.3754V27.053C28.6243 27.9209 27.9207 28.6245 27.0527 28.6245H20.2054H13.358C12.49 28.6245 11.7864 27.9209 11.7864 27.053V25.3754C11.7864 24.2494 12.3492 23.198 13.286 22.5734Z" stroke="#898989" stroke-width="2.02054" stroke-linecap="round" stroke-linejoin="round"/>
</svg>
